# xmcd
# Copyright (C) 1995-1998 Ti Kan
#
# Track frame offsets:
#       150
#       23317
#       210448
#
# Disc length: 4210 seconds
#
# Revision: 0
# Processed by: cddbd v1.5.2PL0 Copyright (c) Steve Scherf et al.
# Submitted via: CD-Transfer v1.0
#
DISCID=15107003
DTITLE=Nour Eddine Benatia - 
DYEAR=1900
DGENRE=
TTITLE0=Intro El Assimya
TTITLE1=Tunis
TTITLE2=Ouelfi Fetoum
EXTD=
EXTT0=
EXTT1=
EXTT2=
PLAYORDER=
